<svg xmlns="http://www.w3.org/2000/svg" width="470pt" height="330pt" viewBox="0 0 470 330">
<rect width="100%" height="100%" fill="#fff"/>
<rect x="4" y="4" width="462" height="322" rx="0" fill="#ffffff" stroke="#333333" stroke-width="0.9"/>
<rect x="4" y="4" width="20" height="322" rx="0" fill="#eeeeee" stroke="#333333" stroke-width="0.9"/>
<text transform="translate(17,165.0) rotate(-90)" font-family="Liberation Sans" font-size="8.5" font-weight="bold" text-anchor="middle">Viajes Aventura · Anular una reserva (TO-BE)</text>
<rect x="24" y="4" width="150" height="322" rx="0" fill="none" stroke="#333333" stroke-width="0.8"/>
<rect x="24" y="4" width="150" height="18" rx="0" fill="#f3f3f3" stroke="#333333" stroke-width="0.8"/>
<text x="99.0" y="16.5" font-family="Liberation Sans" font-size="8.5" text-anchor="middle" fill="#000" font-weight="bold"><tspan x="99.0" dy="0">Cliente</tspan></text>
<rect x="174" y="4" width="292" height="322" rx="0" fill="none" stroke="#333333" stroke-width="0.8"/>
<rect x="174" y="4" width="292" height="18" rx="0" fill="#f3f3f3" stroke="#333333" stroke-width="0.8"/>
<text x="320.0" y="16.5" font-family="Liberation Sans" font-size="8.5" text-anchor="middle" fill="#000" font-weight="bold"><tspan x="320.0" dy="0">Sistema</tspan></text>
<circle cx="101" cy="44" r="9" fill="#fff" stroke="#333333" stroke-width="1.0"/>
<text x="116" y="47.0" font-family="Liberation Sans" font-size="7.3" text-anchor="start" fill="#000"><tspan x="116" dy="0">Desiste del viaje</tspan></text>
<rect x="45.0" y="73.0" width="112" height="30" rx="6" fill="#f5f5f5" stroke="#333333" stroke-width="0.8"/>
<text x="101" y="90.73" font-family="Liberation Sans" font-size="7.8" text-anchor="middle" fill="#000"><tspan x="101" dy="0">Ver mis reservas</tspan></text>
<rect x="234.0" y="119.0" width="112" height="30" rx="6" fill="#f5f5f5" stroke="#333333" stroke-width="0.8"/>
<text x="290" y="132.04999999999998" font-family="Liberation Sans" font-size="7.8" text-anchor="middle" fill="#000"><tspan x="290" dy="0">Mostrar las reservas propias,</tspan><tspan x="290" dy="9.36">numeradas</tspan></text>
<rect x="45.0" y="165.0" width="112" height="30" rx="6" fill="#f5f5f5" stroke="#333333" stroke-width="0.8"/>
<text x="101" y="178.04999999999998" font-family="Liberation Sans" font-size="7.8" text-anchor="middle" fill="#000"><tspan x="101" dy="0">Elegir la reserva</tspan><tspan x="101" dy="9.36">a anular</tspan></text>
<path d="M290,213 L307,230 L290,247 L273,230 Z" fill="#fff6d6" stroke="#333333" stroke-width="0.9"/>
<path d="M284.5,224.5 L295.5,235.5 M295.5,224.5 L284.5,235.5" stroke="#333333" stroke-width="1.6"/>
<text x="265" y="224.0" font-family="Liberation Sans" font-size="7.5" text-anchor="end" fill="#000" font-style="italic"><tspan x="265" dy="0">¿Es suya, está vigente</tspan></text>
<text x="265" y="233.0" font-family="Liberation Sans" font-size="7.5" text-anchor="end" fill="#000" font-style="italic"><tspan x="265" dy="0">y su salida no llegó?</tspan></text>
<text x="265" y="242.0" font-family="Liberation Sans" font-size="7.5" text-anchor="end" fill="#000" font-style="italic"><tspan x="265" dy="0">(R11, S-01)</tspan></text>
<rect x="371.0" y="215.0" width="86" height="30" rx="6" fill="#f5f5f5" stroke="#333333" stroke-width="0.8"/>
<text x="414" y="228.04999999999998" font-family="Liberation Sans" font-size="7.8" text-anchor="middle" fill="#000"><tspan x="414" dy="0">Informar por qué</tspan><tspan x="414" dy="9.36">no se anula</tspan></text>
<circle cx="414" cy="274" r="9" fill="#fff" stroke="#333333" stroke-width="2.6"/>
<text x="414" y="295" font-family="Liberation Sans" font-size="7.3" text-anchor="middle" fill="#000"><tspan x="414" dy="0">No se anula</tspan></text>
<rect x="210.0" y="265.0" width="160" height="30" rx="6" fill="#f5f5f5" stroke="#333333" stroke-width="0.8"/>
<text x="290" y="278.05" font-family="Liberation Sans" font-size="7.8" text-anchor="middle" fill="#000"><tspan x="290" dy="0">Marcarla anulada; sus personas</tspan><tspan x="290" dy="9.36">vuelven al cupo (en una transacción)</tspan></text>
<circle cx="101" cy="280" r="9" fill="#fff" stroke="#333333" stroke-width="2.6"/>
<text x="101" y="301" font-family="Liberation Sans" font-size="7.3" text-anchor="middle" fill="#000"><tspan x="101" dy="0">Reserva anulada</tspan></text>
<path d="M101,53 L101,73.0" fill="none" stroke="#333333" stroke-width="0.9"/>
<path d="M98.2,67.0 L101,73.0 L103.8,67.0 Z" fill="#333333" stroke="#333333" stroke-width="0.9"/>
<path d="M101,103.0 L101,134 L234.0,134" fill="none" stroke="#333333" stroke-width="0.9"/>
<path d="M228.0,136.8 L234.0,134 L228.0,131.2 Z" fill="#333333" stroke="#333333" stroke-width="0.9"/>
<path d="M290,149.0 L290,160 L101,160 L101,165.0" fill="none" stroke="#333333" stroke-width="0.9"/>
<path d="M98.2,159.0 L101,165.0 L103.8,159.0 Z" fill="#333333" stroke="#333333" stroke-width="0.9"/>
<path d="M101,195.0 L101,200 L290,200 L290,213" fill="none" stroke="#333333" stroke-width="0.9"/>
<path d="M287.2,207.0 L290,213 L292.8,207.0 Z" fill="#333333" stroke="#333333" stroke-width="0.9"/>
<path d="M307,230 L371,230" fill="none" stroke="#333333" stroke-width="0.9"/>
<path d="M365.0,232.8 L371,230 L365.0,227.2 Z" fill="#333333" stroke="#333333" stroke-width="0.9"/>
<text x="311" y="224" font-family="Liberation Sans" font-size="7.5" text-anchor="start" fill="#000" font-style="italic" style="paint-order:stroke" stroke="#fff" stroke-width="2.6" stroke-linejoin="round"><tspan x="311" dy="0">no</tspan></text>
<path d="M414,245.0 L414,265" fill="none" stroke="#333333" stroke-width="0.9"/>
<path d="M411.2,259.0 L414,265 L416.8,259.0 Z" fill="#333333" stroke="#333333" stroke-width="0.9"/>
<path d="M290,247 L290,265.0" fill="none" stroke="#333333" stroke-width="0.9"/>
<path d="M287.2,259.0 L290,265.0 L292.8,259.0 Z" fill="#333333" stroke="#333333" stroke-width="0.9"/>
<text x="296" y="259" font-family="Liberation Sans" font-size="7.5" text-anchor="start" fill="#000" font-style="italic" style="paint-order:stroke" stroke="#fff" stroke-width="2.6" stroke-linejoin="round"><tspan x="296" dy="0">sí</tspan></text>
<path d="M210,280 L110,280" fill="none" stroke="#333333" stroke-width="0.9"/>
<path d="M116.0,277.2 L110,280 L116.0,282.8 Z" fill="#333333" stroke="#333333" stroke-width="0.9"/>
</svg>
